<svg version="1.1" id="Layer_1" xmlns="http://www.w3.org/2000/svg" xmlns:xlink="http://www.w3.org/1999/xlink" x="0px" y="0px"
	 width="100%" viewBox="0 0 592 448" enable-background="new 0 0 592 448" xml:space="preserve">
<path fill="#000000" opacity="1.000000" stroke="none" 
	d="
M262.511902,238.267303 
	C302.274628,244.939224 337.460114,260.418274 367.264801,287.256531 
	C388.900482,306.738831 413.962036,319.278351 442.748688,323.313232 
	C466.591431,326.655121 490.040588,324.305420 513.016174,316.160217 
	C525.066528,311.888184 534.923950,304.420868 545.405640,297.778198 
	C548.607422,295.749115 551.297546,294.973663 554.696167,297.773315 
	C549.947021,303.927399 543.553101,308.183289 537.340759,312.524719 
	C506.354828,334.178741 471.772980,344.101532 434.159790,342.058868 
	C398.748016,340.135773 367.010559,327.723877 339.397034,305.269989 
	C315.158264,285.560242 287.588257,272.822388 257.216125,266.096527 
	C214.908707,256.727631 173.552963,259.707642 133.466431,276.601593 
	C105.260963,288.488373 80.951614,305.977142 60.249790,328.481659 
	C54.132462,335.131653 49.744347,343.051941 44.674732,350.465302 
	C42.615021,353.477234 40.226124,355.703186 35.076599,356.202545 
	C56.462921,313.315399 87.677269,281.335938 129.356171,259.738983 
	C171.149643,238.082672 215.536438,231.179779 262.511902,238.267303 
M362.887024,294.645599 
	C340.605469,275.618103 299.698425,255.018738 285.171356,255.877197 
	C286.767242,256.502533 287.808197,256.954010 288.877594,257.322968 
	C308.178406,263.981781 326.421814,272.802795 343.067963,284.653351 
	C354.996582,293.145447 366.437012,302.333557 379.343140,309.382202 
	C380.618439,310.078766 381.780518,311.252533 384.419708,310.993225 
	C376.297333,306.153656 370.067719,300.370392 362.887024,294.645599 
z"/>
<path fill="#000000" opacity="1.000000" stroke="none" 
	d="
M373.875671,73.569412 
	C381.431824,72.916061 381.631348,72.912331 381.763702,79.990150 
	C381.978516,91.476982 382.139313,102.975868 381.819092,114.455612 
	C381.708160,118.432114 383.092316,120.465622 386.310638,122.357468 
	C399.227264,129.950302 411.861176,138.036362 424.921600,145.366241 
	C430.062561,148.251480 428.598663,152.485596 428.312378,156.188126 
	C428.049683,159.585968 424.238281,159.050247 421.748901,159.084900 
	C410.758789,159.237885 399.764648,159.089462 388.773865,159.215225 
	C385.147522,159.256714 383.408813,157.884796 383.852020,154.208725 
	C384.198273,151.336563 382.875854,149.666763 380.458099,148.214264 
	C352.927490,131.674606 325.399414,115.129181 298.013245,98.352516 
	C294.007446,95.898598 291.033051,96.154030 287.193848,98.485252 
	C260.027161,114.981155 232.750397,131.295761 205.503159,147.658890 
	C202.669525,149.360596 201.321899,151.933929 201.268433,155.125885 
	C201.212982,158.435272 199.514328,159.290176 196.471100,159.251297 
	C185.979980,159.117233 175.484390,159.283798 164.994980,159.091507 
	C161.776810,159.032516 157.566574,160.528961 156.134323,155.761902 
	C154.663330,150.865875 156.261826,147.634506 161.170578,144.681870 
	C182.000473,132.152588 202.829803,119.622322 223.653564,107.082863 
	C245.046616,94.200607 266.487000,81.395317 287.769104,68.332207 
	C291.323669,66.150398 293.874268,66.489861 297.220856,68.544388 
	C314.952667,79.430344 332.808746,90.114082 350.637573,100.841621 
	C352.300476,101.842171 353.803009,103.310837 356.392212,103.129936 
	C358.402466,97.395531 357.505707,91.375114 357.616119,85.490440 
	C357.887665,71.010147 356.651581,73.355865 370.971924,73.433495 
	C371.803009,73.438004 372.633606,73.526566 373.875671,73.569412 
M363.487854,118.996315 
	C377.218567,126.524498 390.309631,135.020554 402.660217,144.663589 
	C405.031616,146.515106 407.473785,148.655090 411.887939,147.606522 
	C396.234253,136.036530 382.588196,123.005394 364.633331,115.698135 
	C366.500824,113.834755 368.248474,115.558884 369.600250,113.821632 
	C362.971191,111.575111 356.634491,109.140205 349.517700,109.173668 
	C353.970520,112.320389 358.423340,115.467110 363.487854,118.996315 
z"/>
<path fill="#000000" opacity="1.000000" stroke="none" 
	d="
M381.810699,161.700226 
	C381.854889,172.707703 381.854889,183.278732 381.854889,194.342285 
	C385.780457,193.548920 387.955322,191.663193 390.321991,190.263214 
	C397.775696,185.854111 405.230835,181.438370 412.531158,176.783325 
	C415.467865,174.910751 417.807281,174.957367 420.740448,176.804688 
	C429.755310,182.482224 438.922058,187.919205 448.049072,193.417618 
	C449.879242,194.520157 451.633179,195.838745 454.171906,196.154175 
	C456.230896,193.295364 455.785858,189.901199 455.806549,186.688065 
	C455.836609,182.015182 457.537781,179.723251 462.655518,179.819931 
	C475.359436,180.059921 473.104706,179.136459 473.320740,190.547546 
	C473.358582,192.545929 473.659302,194.611923 473.273804,196.533386 
	C471.395569,205.894974 475.630951,211.389679 483.871185,215.170609 
	C489.290436,217.657166 494.189789,221.257233 499.419067,224.185211 
	C502.265839,225.779190 503.703430,227.930710 502.865662,231.120026 
	C502.001007,234.411880 499.110077,233.239258 496.993103,233.288940 
	C490.999207,233.429611 484.993896,233.497986 479.004517,233.280212 
	C474.617645,233.120697 473.237274,234.950134 473.263794,239.218811 
	C473.407349,262.373718 473.197693,285.531433 473.441254,308.684662 
	C473.494202,313.716766 472.020905,315.834137 466.951172,315.206879 
	C465.144043,314.983337 463.284760,315.218658 461.460693,315.086884 
	C457.728119,314.817169 455.796204,312.947906 455.751495,308.993713 
	C455.431732,280.699280 454.436279,252.407074 455.744507,224.109238 
	C455.836731,222.113846 456.695068,220.717239 458.093781,218.707520 
	C448.997681,213.281448 440.037354,207.934769 431.075134,202.591324 
	C428.786987,201.227081 426.172028,200.219681 424.260040,198.450806 
	C417.959320,192.621796 412.201569,193.775772 405.723114,198.439911 
	C399.528107,202.899948 392.748932,206.576492 386.081116,210.339783 
	C382.892700,212.139328 381.889954,214.492996 381.917633,218.048431 
	C382.069336,237.537399 382.036163,257.028015 382.005890,276.517975 
	C382.002411,278.762665 382.556396,281.189087 380.505707,283.532898 
	C376.553589,281.364899 373.853394,277.495941 370.056519,275.329620 
	C359.646515,269.390228 357.486725,260.663361 357.741150,249.108337 
	C358.503723,214.475357 357.981903,179.814056 357.955597,145.163818 
	C357.953827,142.844025 357.755798,140.488129 360.100891,137.872574 
	C366.738434,141.975845 373.661865,145.835327 380.091461,150.391663 
	C383.822662,153.035751 380.969086,157.640991 381.810699,161.700226 
M373.222321,194.668274 
	C373.507843,195.972641 373.187531,197.571991 375.380005,198.707199 
	C375.758759,193.266541 376.492767,188.371246 373.934265,182.318192 
	C372.616669,187.006485 373.037872,190.446579 373.222321,194.668274 
z"/>
<path fill="#000000" opacity="1.000000" stroke="none" 
	d="
M416.802948,372.939728 
	C379.890717,372.548401 347.112396,361.715454 318.090485,339.309479 
	C290.374878,317.911987 259.353424,302.905640 225.680786,293.305145 
	C204.472229,287.258270 182.909866,283.654083 160.845184,283.105164 
	C159.274048,283.066040 157.515884,283.515381 155.864258,282.087067 
	C156.822708,280.029266 158.940506,280.312256 160.476929,280.099213 
	C188.416336,276.225372 216.226730,276.793671 243.857590,282.780182 
	C278.404907,290.265289 309.366364,305.276398 337.963867,325.986176 
	C358.778107,341.059479 382.562256,349.622711 408.114288,352.696533 
	C441.122437,356.667358 472.778870,351.905579 502.743835,337.102631 
	C506.732513,335.132172 506.771088,335.210266 510.848053,338.593719 
	C507.376404,343.259491 502.299103,345.937714 497.577179,348.849213 
	C474.639130,362.992737 449.830078,371.371185 422.728210,372.374329 
	C420.902496,372.441895 419.085144,372.734222 416.802948,372.939728 
M318.578186,320.961517 
	C316.607513,319.814453 314.636871,318.667358 312.666199,317.520294 
	C312.506256,317.814087 312.346313,318.107849 312.186340,318.401642 
	C318.231262,322.488373 324.276154,326.575134 330.321045,330.661865 
	C327.591095,326.223022 322.959869,324.338837 318.578186,320.961517 
z"/>
<path fill="#000000" opacity="1.000000" stroke="none" 
	d="
M125.932404,250.018768 
	C121.298256,252.157364 117.684998,255.732376 112.310966,256.121429 
	C110.859062,252.304916 111.767021,248.493027 111.623680,244.792953 
	C111.449715,240.302490 111.540871,235.800552 111.568031,231.303879 
	C111.592560,227.241638 109.925026,225.151428 105.560074,225.287033 
	C99.403435,225.478317 93.235641,225.408203 87.074814,225.310989 
	C85.084473,225.279587 82.474777,226.113327 81.894196,222.898666 
	C81.400429,220.164749 82.182442,218.087250 84.716927,216.594467 
	C91.459145,212.623383 97.946793,208.178101 104.881065,204.588654 
	C110.208420,201.830994 112.300606,198.218231 111.696190,192.279160 
	C111.192917,187.333939 111.671638,182.294907 111.564781,177.300659 
	C111.510460,174.761917 112.476906,173.455399 115.051559,173.753647 
	C119.783394,174.301773 125.069450,171.994827 129.384338,176.385605 
	C126.516953,180.790466 127.541138,184.622452 131.053345,188.651184 
	C139.796127,183.408859 148.548309,178.334061 157.123291,172.975662 
	C167.987915,166.186539 167.906372,166.119080 178.930527,172.820969 
	C186.275940,177.286423 193.686539,181.644669 200.833008,185.910629 
	C203.464828,183.981186 202.778732,181.808029 202.795761,179.925827 
	C202.871063,171.598938 202.872757,163.270187 202.773331,154.943649 
	C202.742859,152.390640 203.370865,150.454605 205.711227,149.112061 
	C211.194748,145.966522 216.644501,142.758957 222.044571,139.472443 
	C225.171539,137.569351 226.739502,138.601364 227.047501,141.951630 
	C227.244797,144.097702 227.093140,146.276047 227.094574,148.439926 
	C227.110123,171.756775 227.022186,195.074539 227.229584,218.389679 
	C227.269577,222.884995 226.030304,224.674911 221.358856,224.535324 
	C216.723801,224.396835 212.048386,224.934052 207.420502,225.445068 
	C203.792877,225.845657 202.640045,224.269409 202.746002,220.910812 
	C202.866745,217.084259 202.604309,213.242935 202.792252,209.421997 
	C202.948380,206.248032 201.890640,204.089020 199.097595,202.447739 
	C190.628922,197.471237 182.247635,192.345428 173.855820,187.239120 
	C171.902725,186.050705 170.071732,185.343155 167.832458,186.688843 
	C154.997864,194.401810 142.122681,202.047180 129.274673,209.737854 
	C128.872452,209.978622 128.615784,210.462555 128.023010,211.139435 
	C130.244217,213.427444 130.131577,216.382111 130.085037,219.349197 
	C129.954544,227.667664 130.355255,235.984375 129.647598,244.310577 
	C129.415131,247.045807 128.457214,248.652573 125.932404,250.018768 
M219.745361,179.358932 
	C220.380020,180.251724 221.350906,180.958237 222.268402,180.295074 
	C224.967941,178.343964 223.635254,175.454605 223.595551,172.931473 
	C223.574356,171.584808 222.364319,170.727036 221.135712,171.119049 
	C218.588730,171.931747 219.318710,174.316803 219.169708,176.198242 
	C219.105530,177.008713 219.343826,177.843124 219.745361,179.358932 
z"/>
<path fill="#000000" opacity="1.000000" stroke="none" 
	d="
M182.813385,216.863831 
	C183.160889,225.436035 183.160858,225.410461 174.989807,225.419952 
	C169.357391,225.426498 163.716995,225.352295 158.095825,225.630707 
	C154.802979,225.793793 153.568527,224.611450 153.643173,221.378082 
	C153.770004,215.884033 153.756821,210.383224 153.642609,204.888580 
	C153.579834,201.868851 154.919754,200.699768 157.833481,200.734344 
	C164.495117,200.813416 171.160736,200.900955 177.819443,200.750305 
	C181.752869,200.661316 182.984375,202.452118 183.152359,206.164993 
	C183.309586,209.639938 181.365631,212.993088 182.813385,216.863831 
z"/>
<path fill="#000000" opacity="1.000000" stroke="none" 
	d="
M409.897522,233.713898 
	C415.011047,232.980072 416.951813,235.035751 416.480377,238.103134 
	C415.996002,234.369904 418.873657,233.056076 423.439880,233.605423 
	C424.753265,233.763443 426.100220,233.642029 427.431793,233.649109 
	C434.080353,233.684418 434.082672,233.686783 434.127228,240.333435 
	C434.176056,247.618439 434.176422,247.568069 426.650635,247.512100 
	C419.013763,247.455292 411.363525,247.256714 403.744293,247.631592 
	C400.191833,247.806381 399.426239,246.251282 399.183685,243.395874 
	C398.416901,234.369446 399.120667,233.686035 409.897522,233.713898 
z"/>
<path fill="#000000" opacity="1.000000" stroke="none" 
	d="
M293.697327,157.028931 
	C293.701599,154.881699 293.727600,153.217972 293.709564,151.554703 
	C293.684906,149.283508 294.874481,148.142090 297.055603,148.116547 
	C301.712860,148.062012 306.371277,148.074554 311.028931,148.103317 
	C314.113403,148.122360 315.493958,149.641769 315.354034,152.803284 
	C315.199738,156.290146 315.236786,159.792267 315.353699,163.282272 
	C315.454620,166.293991 314.024414,167.518463 311.158539,167.461563 
	C307.334473,167.385605 303.491425,167.088638 299.690002,167.358444 
	C295.228210,167.675095 293.010315,166.255096 293.657593,161.501938 
	C293.835632,160.194519 293.694214,158.843613 293.697327,157.028931 
z"/>
<path fill="#000000" opacity="1.000000" stroke="none" 
	d="
M307.904816,168.883514 
	C315.312561,168.913635 315.312561,168.913635 315.309387,175.747971 
	C315.303589,188.148666 315.303558,188.148788 302.844238,188.180832 
	C301.845581,188.183395 300.835236,188.083527 299.850281,188.200027 
	C295.131439,188.758102 293.438965,186.878098 293.553192,182.000488 
	C293.858246,168.970200 293.664642,168.965668 307.904816,168.883514 
z"/>
<path fill="#000000" opacity="1.000000" stroke="none" 
	d="
M291.137238,175.146393 
	C290.924988,189.026016 293.661011,188.014694 278.687195,188.190536 
	C277.358063,188.206146 276.025757,188.135147 274.699799,188.201370 
	C271.249542,188.373718 269.518829,187.124344 269.619720,183.316223 
	C270.076080,166.090927 266.816101,169.309265 283.994446,168.919998 
	C288.119385,168.826523 291.990356,168.735794 291.137238,175.146393 
z"/>
<path fill="#000000" opacity="1.000000" stroke="none" 
	d="
M269.622620,160.903748 
	C269.728729,148.084015 269.728729,148.083176 282.063477,148.097458 
	C283.224213,148.098801 284.385437,148.103439 285.545532,148.137161 
	C286.207184,148.156403 286.953125,148.054565 287.514618,148.318634 
	C294.782440,151.736893 289.867767,158.186249 291.044067,163.128738 
	C291.816071,166.372528 289.412048,167.349518 286.468262,167.285889 
	C282.821869,167.207062 279.150482,167.034256 275.529266,167.351379 
	C270.911926,167.755737 269.058228,165.884552 269.622620,160.903748 
z"/>
<path fill="#000000" opacity="1.000000" stroke="none" 
	d="
M432.647736,218.902710 
	C435.078308,222.482391 435.022369,226.652512 433.691559,229.647217 
	C431.124878,235.423141 425.183258,231.473145 420.838684,232.503494 
	C418.085297,233.156464 416.660645,231.112885 416.838013,228.222687 
	C416.909149,227.062836 416.823486,225.894043 416.829803,224.729431 
	C416.863495,218.494110 417.058289,218.332245 423.306122,218.560379 
	C426.296509,218.669601 429.290558,218.677628 432.647736,218.902710 
z"/>
<path fill="#000000" opacity="1.000000" stroke="none" 
	d="
M399.705688,231.138321 
	C399.629150,215.891846 396.853516,219.067154 410.913208,218.498123 
	C415.720123,218.303574 416.563507,220.457474 416.208710,224.380280 
	C415.877350,228.044189 417.637207,233.109619 410.868805,232.324783 
	C407.182739,231.897385 403.324951,233.754425 399.705688,231.138321 
z"/>
</svg>